#!OML:ASF E:\motion texture\Top Level 1\Subject 1\Session 1\male.ASF
:FULLY-SPECIFIED
:DEGREES
504
root -1.04688 18.1394 6.10251 25.6877 -55.6879 -19.0331
lowerback 2.04095 7.36897 8.70563
upperback -5.49313 10.1591 -3.38328
thorax -4.81287 4.60787 -8.84202
lowerneck -11.6503 -13.3433 -15.7949
upperneck 6.72316 -16.0652 7.03591
head 5.70637 -7.88607 3.06822
rclavicle 4.00551e-014 -4.6118e-014
rhumerus 69.5739 -27.9659 -49.1523
rradius 61.8126
rwrist 18.8046
rhand -12.5757 -21.114
rfingers 7.12502
rthumb 13.5021 -50.6563
lclavicle 4.00551e-014 -4.6118e-014
lhumerus -48.3361 12.0834 62.7033
lradius 46.5533
lwrist -16.3773
lhand -13.7936 15.548
lfingers 7.12502
lthumb 12.3281 45.1646
rfemur -3.0675 -6.34441 39.8507
rtibia 17.6185
rfoot -13.476 -3.89853
rtoes 13.2945
lfemur -33.5036 -6.47784 -7.10629
ltibia 19.3269
lfoot -9.01516 -2.43125
ltoes -16.3281
505
root -1.15706 18.1291 6.10822 26.1156 -56.1121 -19.3863
lowerback 1.93202 7.55997 8.80634
upperback -5.53114 10.4085 -3.45613
thorax -4.71065 4.73323 -8.9546
lowerneck -11.6027 -13.3963 -15.8759
upperneck 6.65171 -16.1535 7.24096
head 5.71037 -7.91949 3.13389
rclavicle 5.01931e-014 -1.74931e-014
rhumerus 69.7548 -26.7895 -48.9785
rradius 58.8298
rwrist 19.7377
rhand -11.9638 -21.0496
rfingers 7.12502
rthumb 14.0919 -50.5518
lclavicle 5.01931e-014 -1.74931e-014
lhumerus -48.0351 11.6435 63.3325
lradius 47.2091
lwrist -16.4067
lhand -13.6964 15.3409
lfingers 7.12502
lthumb 12.4219 44.9518
rfemur -2.92988 -6.42394 39.9563
rtibia 17.9414
rfoot -13.5074 -3.37017
rtoes 13.0424
lfemur -33.6508 -6.45667 -7.10511
ltibia 18.6029
lfoot -8.89163 -2.45282
ltoes -16.4351
506
root -1.26901 18.1188 6.11438 26.5396 -56.5295 -19.7386
lowerback 1.82701 7.74689 8.89627
upperback -5.56926 10.6521 -3.53054
thorax -4.6122 4.85598 -9.06213
lowerneck -11.5509 -13.4502 -15.9583
upperneck 6.5838 -16.2446 7.45256
head 5.71616 -7.95419 3.20139
rclavicle -2.38542e-014 -1.27222e-014
rhumerus 69.937 -25.6463 -48.8472
rradius 55.8882
rwrist 20.6692
rhand -11.3037 -20.9623
rfingers 7.12502
rthumb 14.728 -50.4192
lclavicle -2.38542e-014 -1.27222e-014
lhumerus -47.7498 11.2256 63.9058
lradius 47.8324
lwrist -16.434
lhand -13.5906 15.1474
lfingers 7.12502
lthumb 12.5238 44.7521
rfemur -2.79374 -6.49944 40.051
rtibia 18.2867
rfoot -13.5221 -2.84525
rtoes 12.7805
lfemur -33.7817 -6.45822 -7.07831
ltibia 17.9418
lfoot -8.75006 -2.46438
ltoes -16.5392
507
root -1.38271 18.1086 6.12114 26.9508 -56.9374 -20.0806
lowerback 1.72082 7.92967 8.9686
upperback -5.60456 10.8888 -3.60415
thorax -4.5134 4.97639 -9.15743
lowerneck -11.494 -13.506 -16.0413
upperneck 6.51778 -16.3392 7.66591
head 5.72271 -7.99081 3.26919
rclavicle 1.42131e-014 1.27222e-014
rhumerus 70.1113 -24.5373 -48.7481
rradius 53.0122
rwrist 21.5956
rhand -10.6028 -20.8559
rfingers 7.12502
rthumb 15.4031 -50.2621
lclavicle 1.42131e-014 1.27222e-014
lhumerus -47.4775 10.8329 64.4327
lradius 48.421
lwrist -16.4586
lhand -13.4834 14.9814
lfingers 7.12502
lthumb 12.6272 44.5797
rfemur -2.65982 -6.58083 40.1286
rtibia 18.655
rfoot -13.5174 -2.31842
rtoes 12.5118
lfemur -33.8963 -6.48449 -7.03405
ltibia 17.3464
lfoot -8.58873 -2.4642
ltoes -16.627
508
root -1.49821 18.0985 6.12848 27.3494 -57.3349 -20.4131
lowerback 1.61535 8.10731 9.02618
upperback -5.6381 11.1178 -3.67868
thorax -4.41613 5.09361 -9.24446
lowerneck -11.432 -13.5629 -16.125
upperneck 6.45388 -16.4371 7.88452
head 5.73037 -8.02898 3.33835
rclavicle 8.95525e-014 4.77083e-015
rhumerus 70.2645 -23.4616 -48.6778
rradius 50.2226
rwrist 22.5055
rhand -9.87982 -20.7243
rfingers 7.12502
rthumb 16.0994 -50.0756
lclavicle 8.95525e-014 4.77083e-015
lhumerus -47.2178 10.4668 64.9083
lradius 48.9714
lwrist -16.4776
lhand -13.3709 14.8271
lfingers 7.12502
lthumb 12.7357 44.4187
rfemur -2.52876 -6.66662 40.1907
rtibia 19.0473
rfoot -13.4902 -1.79184
rtoes 12.2402
lfemur -33.9951 -6.52861 -6.97414
ltibia 16.8207
lfoot -8.4111 -2.4569
ltoes -16.689
509
root -1.61554 18.0886 6.13642 27.733 -57.7201 -20.7344
lowerback 1.51375 8.27907 9.07253
upperback -5.67142 11.3384 -3.75654
thorax -4.32304 5.20693 -9.32857
lowerneck -11.3603 -13.6201 -16.2087
upperneck 6.389 -16.5381 8.1126
head 5.73784 -8.0686 3.41048
rclavicle 9.12422e-014 -1.74931e-014
rhumerus 70.3825 -22.4185 -48.633
rradius 47.5406
rwrist 23.3979
rhand -9.13834 -20.5734
rfingers 7.12502
rthumb 16.8133 -49.8655
lclavicle 9.12422e-014 -1.74931e-014
lhumerus -46.9703 10.1235 65.3311
lradius 49.4821
lwrist -16.4915
lhand -13.2562 14.6934
lfingers 7.12502
lthumb 12.8462 44.2781
rfemur -2.40107 -6.75921 40.2373
rtibia 19.4634
rfoot -13.4361 -1.26512
rtoes 11.9661
lfemur -34.0776 -6.5843 -6.90359
ltibia 16.3667
lfoot -8.22344 -2.45387
ltoes -16.7214
510
root -1.73465 18.0789 6.14505 28.1007 -58.0906 -21.0446
lowerback 1.41376 8.4447 9.10781
upperback -5.70256 11.5503 -3.83541
thorax -4.2314 5.3164 -9.40693
lowerneck -11.2875 -13.6799 -16.2906
upperneck 6.33029 -16.6438 8.34182
head 5.74796 -8.11062 3.48182
rclavicle -3.85642e-014 4.77083e-015
rhumerus 70.455 -21.4072 -48.5981
rradius 44.9872
rwrist 24.2584
rhand -8.38534 -20.4138
rfingers 7.12502
rthumb 17.538 -49.6428
lclavicle -3.85642e-014 4.77083e-015
lhumerus -46.7319 9.80963 65.7051
lradius 49.9488
lwrist -16.5059
lhand -13.1401 14.5805
lfingers 7.12502
lthumb 12.9581 44.1581
rfemur -2.27774 -6.86356 40.2686
rtibia 19.9043
rfoot -13.3509 -0.735126
rtoes 11.6886
lfemur -34.1441 -6.6498 -6.82456
ltibia 15.9862
lfoot -8.02729 -2.46188
ltoes -16.7182
511
root -1.85558 18.0695 6.15438 28.4507 -58.4459 -21.3427
lowerback 1.3158 8.6033 9.13184
upperback -5.73128 11.7523 -3.91406
thorax -4.14187 5.42142 -9.4784
lowerneck -11.2107 -13.7408 -16.3734
upperneck 6.27526 -16.7523 8.57467
head 5.75981 -8.15414 3.55401
rclavicle -1.01877e-013 -3.18055e-015
rhumerus 70.4712 -20.423 -48.5605
rradius 42.5787
rwrist 25.0759
rhand -7.63451 -20.2498
rfingers 7.12502
rthumb 18.2605 -49.4127
lclavicle -1.01877e-013 -3.18055e-015
lhumerus -46.5038 9.52924 66.0314
lradius 50.3701
lwrist -16.5228
lhand -13.0231 14.4902
lfingers 7.12502
lthumb 13.0709 44.0606
rfemur -2.15888 -6.97842 40.285
rtibia 20.3693
rfoot -13.2288 -0.203713
rtoes 11.4089
lfemur -34.1929 -6.72223 -6.73953
ltibia 15.6772
lfoot -7.82122 -2.48564
ltoes -16.6732
512
root -1.97834 18.0605 6.16439 28.7813 -58.7856 -21.6276
lowerback 1.21843 8.75609 9.1447
upperback -5.75696 11.946 -3.99336
thorax -4.05259 5.52287 -9.54369
lowerneck -11.1265 -13.8042 -16.4566
upperneck 6.22156 -16.8662 8.81221
head 5.77244 -8.20041 3.6272
rclavicle 2.18663e-014 -1.11319e-014
rhumerus 70.4177 -19.4658 -48.5055
rradius 40.3304
rwrist 25.8374
rhand -6.90126 -20.0788
rfingers 7.12502
rthumb 18.9658 -49.1742
lclavicle 2.18663e-014 -1.11319e-014
lhumerus -46.2824 9.27811 66.3131
lradius 50.7436
lwrist -16.5402
lhand -12.9044 14.4149
lfingers 7.12502
lthumb 13.1853 43.978
rfemur -2.04621 -7.10671 40.2854
rtibia 20.86
rfoot -13.065 0.331815
rtoes 11.1288
lfemur -34.2227 -6.79664 -6.65246
ltibia 15.438
lfoot -7.6043 -2.52878
ltoes -16.5884
